<svg width="32" height="33" viewBox="0 0 32 33" fill="none" xmlns="http://www.w3.org/2000/svg">
<path d="M29.176 11.3666L25.196 15.3466C24.098 16.4466 22.316 16.4466 21.216 15.3466L17.236 11.3666C16.138 10.2666 16.138 8.48663 17.236 7.38663L21.216 3.40663C22.316 2.30863 24.096 2.30863 25.196 3.40663L29.176 7.38663C30.274 8.48663 30.274 10.2666 29.176 11.3666ZM19.278 18.0166H25.562C27.298 18.0166 28.704 19.4226 28.704 21.1586V27.4426C28.704 29.1786 27.298 30.5846 25.562 30.5846H19.278C17.542 30.5846 16.136 29.1786 16.136 27.4426V21.1586C16.138 19.4226 17.544 18.0166 19.278 18.0166ZM11.424 30.5826H5.142C3.406 30.5826 2 29.1766 2 27.4406V21.1566C2 19.4226 3.406 18.0166 5.142 18.0166H11.426C13.16 18.0166 14.568 19.4226 14.568 21.1586V27.4426C14.566 29.1766 13.16 30.5826 11.424 30.5826ZM11.424 16.4446H5.142C3.406 16.4446 2 15.0386 2 13.3046V7.02063C2 5.28463 3.406 3.87863 5.142 3.87863H11.426C13.16 3.87863 14.568 5.28463 14.568 7.02063V13.3046C14.566 15.0386 13.16 16.4446 11.424 16.4446Z" fill="#39B345"/>
</svg>
