<svg width="20" height="19" viewBox="0 0 20 19" fill="none" xmlns="http://www.w3.org/2000/svg">
<path d="M8.21875 2.72949L8.78374 4.25635C9.79659 6.99355 11.9547 9.15165 14.6919 10.1645L16.2188 10.7295L14.6919 11.2945C11.9547 12.3073 9.79659 14.4654 8.78374 17.2026L8.21875 18.7295L7.65376 17.2026C6.64091 14.4654 4.4828 12.3073 1.74561 11.2945L0.21875 10.7295L1.74561 10.1645C4.4828 9.15165 6.64091 6.99354 7.65376 4.25635L8.21875 2.72949Z" fill="#FF6448"/>
<path d="M15.5439 -0.00976562C16.1702 1.68278 17.5047 3.01725 19.1973 3.64355C17.5047 4.26986 16.1702 5.60432 15.5439 7.29688C14.9176 5.60432 13.5832 4.26985 11.8906 3.64355C13.5832 3.01725 14.9176 1.68278 15.5439 -0.00976562Z" fill="#FF6448"/>
</svg>
