<svg width="32" height="32" viewBox="0 0 32 32" fill="none" xmlns="http://www.w3.org/2000/svg">
<path d="M15.9548 12.2528V23.791L25.1386 22.0463V16.4253C25.1386 16.19 25.3438 16.0065 25.5761 16.0338L26.7058 16.209C26.8019 16.2198 26.8907 16.2657 26.9551 16.3378C27.0195 16.41 27.0551 16.5033 27.0551 16.6V23.1293C27.0551 23.3153 26.9268 23.4765 26.7441 23.5145L16.6898 25.6775C16.2043 25.7823 15.7021 25.7832 15.2163 25.68L5.26905 23.5888C5.18254 23.5703 5.10474 23.5233 5.04819 23.4553C4.99164 23.3873 4.95963 23.3022 4.9573 23.2138L4.7853 16.5805C4.78257 16.4806 4.81811 16.3834 4.88466 16.3088C4.9512 16.2343 5.04372 16.1879 5.1433 16.1793L13.5921 15.4355C13.6642 15.4289 13.7331 15.4027 13.7914 15.3598C13.8497 15.3169 13.8953 15.2589 13.9231 15.192L15.1973 12.0995C15.3588 11.7033 15.9548 11.8208 15.9548 12.2528Z" fill="#FF6448"/>
<path d="M4.68974 8.47398L2.03724 14.1422C1.90874 14.4185 2.13024 14.733 2.43399 14.6997L12.392 13.694C12.461 13.6866 12.5268 13.6613 12.5829 13.6205C12.639 13.5797 12.6835 13.5248 12.7117 13.4615L15.9162 6.24298L4.97374 8.25273C4.91219 8.26428 4.85429 8.29038 4.80488 8.32887C4.75547 8.36736 4.716 8.41712 4.68974 8.47398ZM15.9165 6.24573L19.3067 13.691C19.3672 13.822 19.49 13.9097 19.635 13.9205L29.5742 14.719C29.6426 14.7246 29.7113 14.7123 29.7734 14.6832C29.8356 14.6541 29.889 14.6093 29.9285 14.5532C29.968 14.4971 29.9921 14.4316 29.9985 14.3633C30.0049 14.295 29.9934 14.2262 29.965 14.1637L27.3735 8.48223C27.3469 8.42408 27.3066 8.37329 27.256 8.33426C27.2054 8.29522 27.146 8.26913 27.083 8.25823L15.9165 6.24573Z" fill="#FF6448"/>
</svg>
