<svg width="21" height="20" viewBox="0 0 21 20" fill="none" xmlns="http://www.w3.org/2000/svg">
<g clip-path="url(#clip0_2358_6136)">
<path d="M10.1707 9.18179L11.9207 4.08616L6.72092 11.4442L9.28971 11.5226L7.83104 15.9816L12.9931 9.26793L10.1707 9.18179Z" fill="white"/>
<path d="M5.11267 4.20678C5.02125 4.57068 4.97603 4.99478 4.98128 5.46945C4.83907 5.51153 4.69496 5.5572 4.55101 5.60667C4.28769 5.69717 4.02576 5.79649 3.77336 5.89847C3.72992 5.18035 3.77653 4.50931 3.92559 3.916C4.14355 3.04843 4.59478 2.3019 5.34796 1.87252C6.67229 1.11751 8.35719 1.63554 9.86058 2.66915C11.1937 3.58569 12.5453 5.00636 13.701 6.76241C13.4145 6.70019 13.0898 6.63711 12.7393 6.58157C12.4967 6.54311 12.2513 6.51176 12.0159 6.48623C11.1003 5.27726 10.1095 4.3119 9.16173 3.66028C7.74848 2.68864 6.63131 2.53541 5.95948 2.91842C5.57835 3.1357 5.27755 3.55048 5.11267 4.20678Z" fill="white"/>
<path d="M12.3413 6.93075C12.6326 7.3424 12.9144 7.77889 13.1827 8.23784C14.3754 10.2776 15.0459 12.3235 15.1869 13.9652C15.3324 15.6596 14.9083 16.6915 14.2364 17.0745C13.8608 17.2887 13.3563 17.3401 12.7119 17.1626C12.3112 17.0522 11.8738 16.857 11.4137 16.5782L11.3546 16.6319C11.0488 16.9087 10.7217 17.1694 10.4304 17.3883C11.0838 17.8261 11.7434 18.1496 12.3831 18.3258C13.2402 18.562 14.106 18.5434 14.848 18.1204C16.1723 17.3654 16.5604 15.6656 16.4056 13.8631C16.2463 12.0081 15.5038 9.79215 14.2419 7.63399C14.1655 7.50326 14.0879 7.37406 14.0093 7.24644C13.6495 7.15933 13.1905 7.06079 12.6747 6.97905C12.5639 6.96148 12.4523 6.94543 12.3413 6.93075Z" fill="white"/>
<path d="M14.6901 5.77338C13.3134 5.4 11.7264 5.19049 10.0469 5.19049C7.52316 5.19049 5.20848 5.66353 3.50186 6.4548C1.84365 7.22363 0.546875 8.40545 0.546875 9.91547C0.546875 10.7649 0.96686 11.5172 1.60694 12.1335C2.06287 12.5725 2.64616 12.9596 3.32024 13.2896C3.37469 12.886 3.45472 12.4841 3.56656 12.0542C3.11774 11.8093 2.74674 11.5441 2.46081 11.2688C1.97875 10.8047 1.76993 10.3455 1.76993 9.91547C1.76993 9.14945 2.46291 8.27072 4.02169 7.54799C5.53207 6.84771 7.66162 6.39819 10.0469 6.39819C11.7156 6.39819 13.2591 6.61819 14.553 6.99014C14.5807 6.83457 14.608 6.66003 14.6313 6.47275C14.6612 6.23283 14.6793 5.98639 14.6901 5.77338Z" fill="white"/>
<path d="M14.9968 7.12684C15.3823 7.25386 15.742 7.39494 16.0721 7.54799C17.6308 8.27072 18.3238 9.14945 18.3238 9.91547C18.3238 10.3455 18.115 10.8047 17.6329 11.2688C17.3312 11.5593 16.9348 11.8385 16.4522 12.0945C16.5386 12.4369 16.625 12.8475 16.6849 13.2976L16.6892 13.3304C17.399 12.9916 18.012 12.5907 18.4868 12.1335C19.1269 11.5172 19.5469 10.7649 19.5469 9.91547C19.5469 8.40545 18.2501 7.22363 16.5919 6.4548C16.148 6.24897 15.6629 6.06468 15.1437 5.90465C15.1321 6.10137 15.1144 6.32058 15.0874 6.53687C15.0606 6.75263 15.0287 6.95207 14.9968 7.12684Z" fill="white"/>
<path d="M11.3097 3.3269C12.3643 2.61272 13.5408 2.57164 14.1856 2.93926C14.8575 3.32227 15.2817 4.35424 15.1361 6.0486C15.0883 6.60592 14.9794 7.20982 14.8097 7.84423C14.8161 7.85665 14.823 7.87015 14.8304 7.88467C14.8753 7.97271 14.9388 8.09846 15.0135 8.2496C15.1627 8.55163 15.3572 8.95625 15.5371 9.36465C15.5502 9.3946 15.5637 9.42593 15.5773 9.4585C16.0048 8.2934 16.2675 7.16779 16.3548 6.15066C16.5096 4.34822 16.1215 2.64837 14.7972 1.89336C13.5884 1.20425 11.8022 1.43034 10.3917 2.49582C10.6681 2.72494 10.9709 2.99072 11.2487 3.2664L11.3097 3.3269Z" fill="white"/>
<path d="M15.3593 10.0209C15.2904 9.83296 15.2237 9.66259 15.1632 9.52517C14.9866 9.12415 14.7949 8.72528 14.6471 8.42615C14.6456 8.4231 14.6441 8.42005 14.6426 8.41702C14.3035 9.49062 13.7995 10.6342 13.132 11.776C11.9393 13.8157 10.4803 15.4121 9.11095 16.3535C7.6977 17.3252 6.58053 17.4784 5.9087 17.0954C5.39672 16.8035 5.02411 16.1428 4.94516 15.0496C4.86726 13.9712 5.09054 12.5899 5.63341 11.0799C5.8912 10.3628 6.37844 9.36964 6.81417 8.53532C7.02969 8.12267 7.22851 7.7566 7.37343 7.49374C7.44584 7.36238 7.5047 7.25699 7.54533 7.18466C7.60394 7.0808 7.60394 7.0808 7.60394 7.0808L7.67495 6.95621C7.5532 6.9734 7.42294 6.99242 7.28397 7.01345C6.88124 7.0744 6.47518 7.15727 6.12358 7.23746C6.00556 7.45497 5.87 7.70825 5.72715 7.98177C5.29048 8.81789 4.76886 9.87467 4.48082 10.6759C3.90052 12.29 3.63183 13.8429 3.7252 15.1356C3.81751 16.4136 4.27939 17.561 5.29717 18.1413C6.62151 18.8963 8.3064 18.3783 9.8098 17.3446C11.3571 16.2809 12.9293 14.538 14.1911 12.3798C14.6504 11.5944 15.0408 10.8014 15.3593 10.0209Z" fill="white"/>
</g>
<defs>
<clipPath id="clip0_2358_6136">
<rect width="20" height="20" fill="white" transform="translate(0.046875 6.10352e-05)"/>
</clipPath>
</defs>
</svg>
