<svg width="33" height="32" viewBox="0 0 33 32" fill="none" xmlns="http://www.w3.org/2000/svg">
<g clip-path="url(#clip0_2434_7442)">
<path d="M32.7849 16.1746C32.7849 13.7684 30.5565 11.6579 27.0086 10.269C27.0561 9.95625 27.0989 9.64685 27.1294 9.3431C27.4794 5.88555 26.6463 3.39007 24.7849 2.31509C22.7022 1.11251 19.7604 1.98537 16.786 4.36568C13.8115 1.98537 10.8698 1.11251 8.78711 2.31509C6.92567 3.39007 6.0926 5.88555 6.44253 9.3431C6.47301 9.64685 6.51478 9.95738 6.56332 10.2713C6.26757 10.3842 5.97746 10.5039 5.69864 10.6292C2.53115 12.0531 0.787109 14.0247 0.787109 16.1746C0.787109 18.5809 3.01541 20.6914 6.56332 22.0803C6.51478 22.393 6.47301 22.7024 6.44253 23.0062C6.0926 26.4637 6.92567 28.9592 8.78711 30.0342C9.42709 30.3971 10.1523 30.5826 10.8879 30.5717C12.6511 30.5717 14.7101 29.6435 16.786 27.9836C18.8608 29.6435 20.9209 30.5717 22.6864 30.5717C23.4219 30.5825 24.1471 30.397 24.7871 30.0342C26.6485 28.9592 27.4816 26.4637 27.1317 23.0062C27.1012 22.7024 27.0583 22.393 27.0109 22.0803C30.5588 20.6936 32.7871 18.5798 32.7871 16.1746M22.6728 3.30199C23.1458 3.29058 23.6133 3.40515 24.0274 3.63397C25.3199 4.38036 25.9001 6.40498 25.6179 9.18841C25.5987 9.37811 25.5762 9.57007 25.5491 9.76316C24.0738 9.31875 22.5632 9.00179 21.0338 8.81578C20.1066 7.58299 19.0756 6.43191 17.9521 5.37516C19.7164 4.01111 21.3724 3.30199 22.6717 3.30199M22.0655 19.2234C21.4946 20.2146 20.8729 21.1757 20.2029 22.1028C19.0673 22.2195 17.9264 22.2776 16.7849 22.2767C15.6436 22.2775 14.5031 22.2195 13.3679 22.1028C12.6997 21.1757 12.0799 20.2146 11.511 19.2234C10.9401 18.235 10.4212 17.2173 9.95657 16.1746C10.4212 15.132 10.9401 14.1143 11.511 13.1259C12.079 12.1386 12.6969 11.181 13.3622 10.2566C14.4996 10.137 15.6424 10.0775 16.786 10.0782C17.9272 10.0775 19.0677 10.1356 20.2029 10.2521C20.8706 11.1779 21.4907 12.1371 22.061 13.1259C22.6314 14.1146 23.1503 15.1322 23.6154 16.1746C23.1503 17.2171 22.6314 18.2347 22.061 19.2234M24.392 18.0942C24.7503 19.0715 25.0444 20.071 25.2725 21.0866C24.2826 21.3953 23.2735 21.6386 22.2518 21.8149C22.6401 21.2292 23.0164 20.6198 23.3806 19.9868C23.7407 19.3612 24.0782 18.73 24.3965 18.0988M14.6423 23.7322C15.3445 23.7752 16.0613 23.8 16.7871 23.8C17.5129 23.8 18.2343 23.7752 18.9375 23.7322C18.2707 24.5311 17.5524 25.2855 16.7871 25.9906C16.0235 25.2857 15.307 24.5312 14.6423 23.7322ZM11.3213 21.8126C10.2992 21.6371 9.28976 21.3946 8.29946 21.0866C8.52664 20.0726 8.81963 19.0746 9.17655 18.0988C9.49037 18.73 9.82676 19.3612 10.1925 19.9868C10.5582 20.6123 10.9364 21.2289 11.3213 21.8149M9.17655 14.2494C8.82091 13.2772 8.52868 12.2829 8.30171 11.2729C9.28956 10.9645 10.2963 10.7205 11.3157 10.5423C10.9296 11.1261 10.5515 11.7313 10.1869 12.3625C9.82224 12.9937 9.48924 13.617 9.17091 14.2494M18.9308 8.61591C18.2286 8.573 17.5118 8.54816 16.7803 8.54816C16.0549 8.54816 15.34 8.57074 14.6356 8.61591C15.3002 7.81692 16.0167 7.0625 16.7803 6.35755C17.5459 7.06232 18.2643 7.81673 18.9308 8.61591ZM23.3783 12.3625C23.0126 11.7287 22.6344 11.1189 22.2439 10.5333C23.2683 10.7096 24.2801 10.9533 25.2725 11.2627C25.0448 12.2765 24.7518 13.2745 24.3954 14.2505C24.0816 13.6193 23.7441 12.9881 23.3795 12.3637M7.95855 9.18953C7.67296 6.40723 8.25656 4.38149 9.54794 3.6351C9.96221 3.40664 10.4296 3.29209 10.9025 3.30312C12.2018 3.30312 13.8578 4.01224 15.6222 5.37629C14.4979 6.43379 13.4661 7.58562 12.5382 8.81916C11.0092 9.00606 9.49873 9.32185 8.02289 9.76316C7.99693 9.57007 7.97322 9.37924 7.95516 9.18953M6.32401 12.0193C6.49785 11.944 6.67507 11.8687 6.85569 11.7934C7.21076 13.2919 7.69224 14.7576 8.29494 16.1746C7.6911 17.5945 7.20923 19.0632 6.85456 20.5649C3.9783 19.3849 2.31103 17.7498 2.31103 16.1746C2.31103 14.6819 3.7785 13.1676 6.32401 12.0193ZM9.54794 28.7142C8.25656 27.9678 7.67296 25.942 7.95855 23.1597C7.97661 22.97 8.00032 22.7792 8.02628 22.585C9.50155 23.0293 11.0122 23.3462 12.5416 23.5324C13.469 24.7656 14.5 25.9174 15.6233 26.9752C13.1636 28.8757 10.9161 29.5024 9.55133 28.7142M25.6168 23.1597C25.899 25.9432 25.3188 27.9678 24.0263 28.7142C22.6627 29.5046 20.414 28.8757 17.9554 26.9752C19.0784 25.9174 20.109 24.7656 21.036 23.5324C22.5654 23.3464 24.0761 23.0294 25.5513 22.585C25.5784 22.7792 25.601 22.97 25.6202 23.1597M26.7242 20.5626C26.3685 19.0618 25.8863 17.5939 25.2827 16.1746C25.886 14.7546 26.3679 13.2859 26.723 11.7844C29.5937 12.9644 31.2654 14.5994 31.2654 16.1746C31.2654 17.7498 29.5982 19.3849 26.7219 20.5649" fill="#0080A8"/>
<circle cx="17.0187" cy="16.0997" r="2.86438" fill="#0080A8"/>
</g>
<defs>
<clipPath id="clip0_2434_7442">
<rect width="32" height="32" fill="white" transform="translate(0.787109)"/>
</clipPath>
</defs>
</svg>
