<svg width="33" height="32" viewBox="0 0 33 32" fill="none" xmlns="http://www.w3.org/2000/svg">
<g clip-path="url(#clip0_2434_7465)">
<path d="M32.7868 16.1746C32.7868 13.7683 30.5585 11.6579 27.0106 10.269C27.058 9.95619 27.1009 9.64679 27.1314 9.34304C27.4813 5.88549 26.6482 3.39 24.7868 2.31503C22.7041 1.11245 19.7624 1.9853 16.7879 4.36562C13.8135 1.9853 10.8717 1.11245 8.78906 2.31503C6.92763 3.39 6.09455 5.88549 6.44449 9.34304C6.47497 9.64679 6.51673 9.95732 6.56527 10.2712C6.26952 10.3841 5.97941 10.5038 5.70059 10.6292C2.5331 12.0531 0.789062 14.0246 0.789062 16.1746C0.789062 18.5809 3.01737 20.6913 6.56527 22.0802C6.51673 22.393 6.47497 22.7024 6.44449 23.0061C6.09455 26.4637 6.92763 28.9592 8.78906 30.0341C9.42904 30.397 10.1542 30.5826 10.8898 30.5716C12.653 30.5716 14.712 29.6434 16.7879 27.9835C18.8627 29.6434 20.9228 30.5716 22.6883 30.5716C23.4239 30.5824 24.149 30.3969 24.7891 30.0341C26.6505 28.9592 27.4836 26.4637 27.1336 23.0061C27.1032 22.7024 27.0603 22.393 27.0129 22.0802C30.5608 20.6936 32.7891 18.5797 32.7891 16.1746M22.6748 3.30193C23.1477 3.29052 23.6152 3.40509 24.0294 3.63391C25.3219 4.3803 25.9021 6.40492 25.6199 9.18834C25.6007 9.37805 25.5781 9.57001 25.551 9.7631C24.0758 9.31869 22.5651 9.00173 21.0357 8.81571C20.1086 7.58293 19.0776 6.43185 17.954 5.3751C19.7184 4.01105 21.3744 3.30193 22.6736 3.30193M22.0675 19.2234C21.4965 20.2146 20.8749 21.1757 20.2049 22.1028C19.0693 22.2195 17.9284 22.2775 16.7868 22.2767C15.6456 22.2775 14.5051 22.2194 13.3698 22.1028C12.7017 21.1756 12.0819 20.2145 11.5129 19.2234C10.942 18.2349 10.4232 17.2172 9.95853 16.1746C10.4232 15.1319 10.942 14.1143 11.5129 13.1258C12.081 12.1386 12.6989 11.1809 13.3642 10.2565C14.5015 10.137 15.6443 10.0774 16.7879 10.0781C17.9291 10.0774 19.0696 10.1355 20.2049 10.252C20.8725 11.1778 21.4927 12.137 22.0629 13.1258C22.6334 14.1145 23.1522 15.1321 23.6173 16.1746C23.1522 17.217 22.6334 18.2347 22.0629 19.2234M24.394 18.0942C24.7522 19.0714 25.0464 20.071 25.2745 21.0865C24.2846 21.3952 23.2755 21.6385 22.2537 21.8148C22.642 21.2292 23.0183 20.6198 23.3825 19.9867C23.7426 19.3611 24.0802 18.7299 24.3985 18.0987M14.6443 23.7322C15.3464 23.7751 16.0632 23.7999 16.7891 23.7999C17.5149 23.7999 18.2362 23.7751 18.9395 23.7322C18.2727 24.5311 17.5543 25.2855 16.7891 25.9905C16.0254 25.2856 15.309 24.5312 14.6443 23.7322ZM11.3233 21.8126C10.3012 21.637 9.29171 21.3945 8.30141 21.0865C8.52859 20.0726 8.82158 19.0745 9.17851 18.0987C9.49232 18.7299 9.82871 19.3611 10.1945 19.9867C10.5602 20.6123 10.9383 21.2288 11.3233 21.8148M9.17851 14.2493C8.82286 13.2771 8.53063 12.2829 8.30367 11.2728C9.29151 10.9645 10.2983 10.7204 11.3176 10.5422C10.9316 11.126 10.5534 11.7313 10.1888 12.3625C9.8242 12.9937 9.49119 13.617 9.17286 14.2493M18.9327 8.61585C18.2306 8.57294 17.5138 8.5481 16.7823 8.5481C16.0568 8.5481 15.3419 8.57068 14.6375 8.61585C15.3022 7.81685 16.0187 7.06244 16.7823 6.35749C17.5479 7.06226 18.2662 7.81667 18.9327 8.61585ZM23.3803 12.3625C23.0145 11.7286 22.6364 11.1189 22.2458 10.5332C23.2703 10.7095 24.282 10.9532 25.2745 11.2626C25.0467 12.2764 24.7538 13.2745 24.3974 14.2505C24.0835 13.6192 23.746 12.988 23.3814 12.3636M7.9605 9.18947C7.67491 6.40717 8.25851 4.38142 9.54989 3.63504C9.96416 3.40657 10.4316 3.29203 10.9045 3.30306C12.2038 3.30306 13.8598 4.01218 15.6241 5.37623C14.4998 6.43373 13.4681 7.58556 12.5402 8.8191C11.0112 9.006 9.50069 9.32179 8.02485 9.7631C7.99888 9.57001 7.97518 9.37918 7.95712 9.18947M6.32596 12.0192C6.4998 11.9439 6.67703 11.8686 6.85764 11.7934C7.21271 13.2918 7.69419 14.7575 8.29689 16.1746C7.69305 17.5944 7.21118 19.0632 6.85651 20.5648C3.98026 19.3848 2.31298 17.7498 2.31298 16.1746C2.31298 14.6818 3.78046 13.1676 6.32596 12.0192ZM9.54989 28.7141C8.25851 27.9677 7.67491 25.942 7.9605 23.1597C7.97856 22.97 8.00227 22.7792 8.02823 22.5849C9.50351 23.0292 11.0141 23.3462 12.5435 23.5323C13.471 24.7656 14.502 25.9174 15.6252 26.9752C13.1655 28.8756 10.918 29.5023 9.55328 28.7141M25.6188 23.1597C25.901 25.9431 25.3207 27.9677 24.0282 28.7141C22.6646 29.5045 20.416 28.8756 17.9574 26.9752C19.0803 25.9173 20.1109 24.7655 21.038 23.5323C22.5674 23.3463 24.078 23.0293 25.5533 22.5849C25.5804 22.7792 25.6029 22.97 25.6221 23.1597M26.7261 20.5626C26.3705 19.0618 25.8882 17.5939 25.2846 16.1746C25.888 14.7545 26.3698 13.2858 26.725 11.7843C29.5956 12.9643 31.2674 14.5994 31.2674 16.1746C31.2674 17.7498 29.6001 19.3848 26.7239 20.5648" fill="#00DDFF"/>
<circle cx="17.0206" cy="16.0996" r="2.86438" fill="#00DDFF"/>
</g>
<defs>
<clipPath id="clip0_2434_7465">
<rect width="32" height="32" fill="white" transform="translate(0.789062 -6.10352e-05)"/>
</clipPath>
</defs>
</svg>
