<svg width="21" height="20" viewBox="0 0 21 20" fill="none" xmlns="http://www.w3.org/2000/svg">
<path d="M18.8226 15.002H2.23828C2.65639 10.7909 6.20935 7.50195 10.5305 7.50195C14.8516 7.50195 18.4046 10.7909 18.8226 15.002Z" fill="#02C702" stroke="#02C702" stroke-width="1.66667" stroke-linejoin="round"/>
<path d="M6.36589 8.33537L4.69922 5.4187" stroke="#02C702" stroke-width="1.66667" stroke-linecap="round" stroke-linejoin="round"/>
<path d="M14.2832 8.33537L15.9499 5.4187" stroke="#02C702" stroke-width="1.66667" stroke-linecap="round" stroke-linejoin="round"/>
<path d="M6.78255 12.9186C7.24279 12.9186 7.61589 12.5455 7.61589 12.0853C7.61589 11.625 7.24279 11.252 6.78255 11.252C6.32231 11.252 5.94922 11.625 5.94922 12.0853C5.94922 12.5455 6.32231 12.9186 6.78255 12.9186Z" fill="#02C702"/>
<path d="M14.2826 12.9186C14.7428 12.9186 15.1159 12.5455 15.1159 12.0853C15.1159 11.625 14.7428 11.252 14.2826 11.252C13.8223 11.252 13.4492 11.625 13.4492 12.0853C13.4492 12.5455 13.8223 12.9186 14.2826 12.9186Z" fill="#02C702"/>
</svg>
