<svg width="33" height="32" viewBox="0 0 33 32" fill="none" xmlns="http://www.w3.org/2000/svg">
<g clip-path="url(#clip0_2434_7356)">
<path d="M26.0385 9.31432C25.2504 9.4499 24.5141 9.79735 23.9085 10.3194C23.3028 10.8415 22.8507 11.5186 22.6004 12.278C22.4119 12.8675 22.0804 13.4011 21.6355 13.8314C21.1907 14.2616 20.6463 14.5751 20.0508 14.7439L18.2532 15.2427C17.5192 15.4472 16.74 15.4221 16.0207 15.1705C15.3014 14.9189 14.6764 14.4531 14.2298 13.8356L14.2157 13.8168C13.3837 12.6611 13.3122 11.1439 13.9851 9.88937C14.5999 8.74592 14.8685 7.44824 14.7582 6.15469C14.6479 4.86115 14.1634 3.62768 13.3639 2.60482C11.1531 -0.234642 7.02524 -0.846393 4.07848 1.23356C3.34199 1.74918 2.71688 2.40782 2.24041 3.17022C1.76395 3.93262 1.44588 4.78315 1.30517 5.67111C1.16447 6.55907 1.20401 7.46627 1.42145 8.33862C1.63888 9.21097 2.02975 10.0306 2.57075 10.7486C3.31998 11.7414 4.32706 12.5097 5.48247 12.97C6.63789 13.4303 7.89739 13.565 9.12401 13.3594C10.5386 13.1241 11.9663 13.6794 12.7992 14.8361L13.1051 15.2596C13.4909 15.7941 13.7255 16.4226 13.7843 17.0791C13.8431 17.7356 13.7239 18.3959 13.4392 18.9903L12.6468 20.6458C12.4024 21.1626 12.0404 21.6149 11.5898 21.9666C11.1393 22.3183 10.6126 22.5596 10.052 22.6712C9.27036 22.8193 8.54346 23.1763 7.94853 23.7045C7.35361 24.2326 6.9129 24.9121 6.67324 25.6707C5.99561 27.8118 7.08735 30.1449 9.17107 31.0164C11.4976 31.9886 14.1498 30.8395 15.0269 28.5158C15.2693 27.8751 15.357 27.1862 15.283 26.5053C15.2089 25.8243 14.9751 25.1704 14.6006 24.5968C14.2644 24.073 14.0684 23.4716 14.0315 22.8503C13.9946 22.229 14.1179 21.6086 14.3898 21.0487L15.2839 19.1852C15.5131 18.7079 15.8418 18.2852 16.248 17.9456C16.6542 17.606 17.1283 17.3573 17.6386 17.2163L20.6569 16.3777C21.8202 16.0549 23.0823 16.2836 24.0216 17.0384C24.5328 17.4495 25.1289 17.7421 25.7668 17.8953C26.4048 18.0484 27.0687 18.0582 27.7109 17.924C30.1541 17.4149 31.6995 14.9904 31.0868 12.5623C30.5287 10.3468 28.3048 8.91527 26.0385 9.31338" fill="#B447C2"/>
</g>
<defs>
<clipPath id="clip0_2434_7356">
<rect width="32" height="32" fill="white" transform="translate(0.28125 -6.10352e-05)"/>
</clipPath>
</defs>
</svg>
