<svg width="21" height="21" viewBox="0 0 21 21" fill="none" xmlns="http://www.w3.org/2000/svg">
<path d="M14.7738 11.2311C14.7519 7.98736 16.5746 7.90342 16.6565 7.85145C15.6312 6.3525 14.0364 6.11667 13.4688 6.09468C12.1117 5.95678 10.8206 6.87813 10.1311 6.87813C9.44358 6.87813 8.38032 6.09268 7.25511 6.11267C5.77614 6.13466 4.4111 6.97007 3.64763 8.29514C2.11071 10.9633 3.25391 14.9145 4.75286 17.077C5.48435 18.1363 6.35774 19.3254 7.50493 19.2835C8.60816 19.2395 9.02587 18.568 10.3609 18.568C11.696 18.568 12.0697 19.2835 13.2389 19.2595C14.4261 19.2375 15.1796 18.1802 15.9051 17.117C16.7465 15.8878 17.0922 14.7586 17.1122 14.6987C17.0862 14.6867 14.7958 13.3936 14.7718 11.2311H14.7738ZM10.0152 6.2066C10.0152 3.80029 11.9658 1.84766 14.3741 1.84766C14.3741 4.25597 12.4215 6.2066 10.0152 6.2066Z" fill="black"/>
</svg>
