<svg width="20" height="20" viewBox="0 0 20 20" fill="none" xmlns="http://www.w3.org/2000/svg">
<path fill-rule="evenodd" clip-rule="evenodd" d="M5.19683 4.42475L2.58326 6.22507C2.29923 6.42072 2.10258 6.71472 2.0335 7.04698L1.77798 8.27604C1.76443 8.34121 1.73438 8.40204 1.69058 8.45301L0.504615 10.0077C0.344941 10.1935 0.348791 10.6871 0.786137 11.0031C0.953848 11.1493 1.17807 11.477 1.43312 11.8497L1.43312 11.8497C1.97313 12.639 2.65131 13.6302 3.22376 13.5272C4.03382 13.2426 5.02541 13.1516 5.78673 13.5272C7.2667 14.8049 6.90331 15.983 6.38234 17.672C6.17271 18.3516 5.93755 19.114 5.78673 19.9988C6.49755 17.4117 8.09592 14.4069 10.9781 13.3874C10.4588 12.9632 9.39906 12.5691 8.46129 12.4742C8.46129 12.4742 11.3423 10.0077 14.8957 8.87434C12.4151 2.97197 8.32052 0.151295 8.32052 0.151295C8.11187 -0.10677 7.69054 -0.0221092 7.6036 0.295351C7.53376 1.22845 7.41798 1.86295 7.22685 2.46105L5.78673 0.799291C5.6363 0.61794 5.33557 0.722655 5.33707 0.955861C5.5809 2.31136 5.54668 3.07222 5.19683 4.42475ZM6.21052 4.30085L6.21912 4.3003C6.23794 4.29909 6.25646 4.29664 6.27456 4.29302L6.21052 4.30085ZM8.15541 1.25793C9.1423 2.96321 9.58937 3.932 9.74102 5.73998C8.6912 5.14364 8.23382 4.99187 7.46183 4.99565C7.91215 3.62621 8.04976 2.8016 8.15541 1.25793Z" fill="white"/>
<path d="M14.4988 13.9228C10.479 14.8427 8.19556 16.2278 6.44922 19.9994C9.58406 14.7399 19.0737 15.6805 19.0737 15.6805C18.8964 14.8214 17.0097 13.183 15.7688 12.1782C15.7688 12.1782 16.7699 10.9474 18.983 10.3244C18.983 10.3244 14.728 10.5709 12.2508 11.9084C13.0533 12.3319 14.0812 13.0467 14.4988 13.9228Z" fill="white"/>
</svg>
