<svg width="21" height="21" viewBox="0 0 21 21" fill="none" xmlns="http://www.w3.org/2000/svg">
<path d="M14.4784 12.3821C14.5451 11.8321 14.5951 11.2821 14.5951 10.7154C14.5951 10.1487 14.5451 9.59875 14.4784 9.04875H17.2951C17.4284 9.58208 17.5117 10.1404 17.5117 10.7154C17.5117 11.2904 17.4284 11.8487 17.2951 12.3821M13.0034 17.0154C13.5034 16.0904 13.8867 15.0904 14.1534 14.0487H16.6117C15.8044 15.439 14.5235 16.4921 13.0034 17.0154ZM12.7951 12.3821H8.89505C8.81172 11.8321 8.76172 11.2821 8.76172 10.7154C8.76172 10.1487 8.81172 9.59041 8.89505 9.04875H12.7951C12.8701 9.59041 12.9284 10.1487 12.9284 10.7154C12.9284 11.2821 12.8701 11.8321 12.7951 12.3821ZM10.8451 17.3487C10.1534 16.3487 9.59505 15.2404 9.25339 14.0487H12.4367C12.0951 15.2404 11.5367 16.3487 10.8451 17.3487ZM7.51172 7.38208H5.07839C5.87743 5.98809 7.15738 4.93332 8.67839 4.41541C8.17839 5.34041 7.80339 6.34041 7.51172 7.38208ZM5.07839 14.0487H7.51172C7.80339 15.0904 8.17839 16.0904 8.67839 17.0154C7.16057 16.4918 5.88242 15.4385 5.07839 14.0487ZM4.39505 12.3821C4.26172 11.8487 4.17839 11.2904 4.17839 10.7154C4.17839 10.1404 4.26172 9.58208 4.39505 9.04875H7.21172C7.14505 9.59875 7.09505 10.1487 7.09505 10.7154C7.09505 11.2821 7.14505 11.8321 7.21172 12.3821M10.8451 4.07375C11.5367 5.07375 12.0951 6.19041 12.4367 7.38208H9.25339C9.59505 6.19041 10.1534 5.07375 10.8451 4.07375ZM16.6117 7.38208H14.1534C13.8926 6.34996 13.5064 5.35366 13.0034 4.41541C14.5367 4.94041 15.8117 5.99875 16.6117 7.38208ZM10.8451 2.38208C6.23672 2.38208 2.51172 6.13208 2.51172 10.7154C2.51172 15.3154 6.24505 19.0487 10.8451 19.0487C15.4451 19.0487 19.1784 15.3154 19.1784 10.7154C19.1784 6.11541 15.4451 2.38208 10.8451 2.38208Z" fill="#0078FD"/>
</svg>
