<?xml version="1.0"?>
<svg width="923" height="207" xmlns="http://www.w3.org/2000/svg" xmlns:svg="http://www.w3.org/2000/svg" version="1.1">

 <g class="layer">
  <title>Layer 1</title>
  <g id="svg_1">
   <path d="m136,46l33.63,0" fill="none" id="svg_2" stroke="#000000" stroke-miterlimit="10"/>
   <path d="m174.88,46l-7,3.5l1.75,-3.5l-1.75,-3.5l7,3.5z" fill="#000000" id="svg_3" stroke="#000000" stroke-miterlimit="10"/>
   <rect fill="#ffffff" height="60" id="svg_4" rx="9" ry="9" stroke="#000000" width="120" x="16" y="16"/>
   <path d="m296,46l53.63,0" fill="none" id="svg_7" stroke="#000000" stroke-miterlimit="10"/>
   <path d="m354.88,46l-7,3.5l1.75,-3.5l-1.75,-3.5l7,3.5z" fill="#000000" id="svg_8" stroke="#000000" stroke-miterlimit="10"/>
   <rect fill="#ffffff" height="60" id="svg_9" rx="9" ry="9" stroke="#000000" width="120" x="176" y="16"/>
   <path d="m496,46l43.63,0" fill="none" id="svg_12" stroke="#000000" stroke-miterlimit="10"/>
   <path d="m544.88,46l-7,3.5l1.75,-3.5l-1.75,-3.5l7,3.5z" fill="#000000" id="svg_13" stroke="#000000" stroke-miterlimit="10"/>
   <path d="m426,76l0,47.63" fill="none" id="svg_14" stroke="#000000" stroke-miterlimit="10"/>
   <path d="m426,128.88l-3.5,-7l3.5,1.75l3.5,-1.75l-3.5,7z" fill="#000000" id="svg_15" stroke="#000000" stroke-miterlimit="10"/>
   <rect fill="#ffffff" height="60" id="svg_16" rx="9" ry="9" stroke="#000000" width="140" x="356" y="16"/>
   <path d="m496,160l120,0l0,-77.63" fill="none" id="svg_19" stroke="#000000" stroke-miterlimit="10"/>
   <path d="m616,77.12l3.5,7l-3.5,-1.75l-3.5,1.75l3.5,-7z" fill="#000000" id="svg_20" stroke="#000000" stroke-miterlimit="10"/>
   <rect fill="#ffffff" height="60" id="svg_21" rx="9" ry="9" stroke="#000000" width="140" x="356" y="130"/>
   <path d="m686,46l73.63,0" fill="none" id="svg_24" stroke="#000000" stroke-miterlimit="10"/>
   <path d="m764.88,46l-7,3.5l1.75,-3.5l-1.75,-3.5l7,3.5z" fill="#000000" id="svg_25" stroke="#000000" stroke-miterlimit="10"/>
   <rect fill="#ffffff" height="60" id="svg_26" rx="9" ry="9" stroke="#000000" width="140" x="546" y="16"/>
   <rect fill="#ffffff" height="60" id="svg_29" rx="9" ry="9" stroke="#000000" width="140" x="766" y="16"/>
   <rect fill="none" height="20" id="svg_32" width="40" x="546" y="130"/>
   <text fill="#000000" font-family="Serif" font-size="16" id="svg_37" stroke="#000000" stroke-width="0" text-anchor="middle" transform="matrix(0.726213 0 0 1 2.4389 0)" x="99.23" xml:space="preserve" y="52.72">User set fontsize</text>
   <text fill="#000000" font-family="Serif" font-size="16" id="svg_38" stroke="#000000" stroke-width="0" style="cursor: move;" text-anchor="middle" transform="matrix(1 0 0 1 0 0) matrix(0.726213 0 0 1 2.4389 0)" x="322.3" xml:space="preserve" y="50.72">Scale change</text>
   <text fill="#000000" font-family="Serif" font-size="16" id="svg_39" stroke="#000000" stroke-width="0" text-anchor="middle" transform="matrix(0.726213 0 0 1 2.4389 0)" x="583.93" xml:space="preserve" y="52.72">LynxView.updateFontScale</text>
   <text fill="#000000" font-family="Serif" font-size="16" id="svg_40" stroke="#000000" stroke-width="0" text-anchor="middle" transform="matrix(0.726213 0 0 1 2.4389 0)" x="845.57" xml:space="preserve" y="51.72">Resize Font &amp; Relayout</text>
   <text fill="#000000" font-family="Serif" font-size="16" id="svg_41" stroke="#000000" stroke-width="0" style="cursor: move;" text-anchor="middle" transform="matrix(0.726213 0 0 1 2.4389 0)" x="1151.26" xml:space="preserve" y="50.72">Style change</text>
   <text fill="#000000" font-family="Serif" font-size="16" id="svg_42" stroke="#000000" stroke-width="0" text-anchor="middle" transform="matrix(1 0 0 1 0 0) matrix(0.726213 0 0 1 2.4389 0)" x="769.83" xml:space="preserve" y="148.72">setStyle</text>
   <text fill="#000000" font-family="Serif" font-size="16" id="svg_43" stroke="#000000" stroke-width="0" text-anchor="middle" transform="matrix(0.726213 0 0 1 2.4389 0)" x="585.31" xml:space="preserve" y="164.72">JS onFontScaleChanged</text>
  </g>
 </g>
</svg>