<svg width="743" height="312" viewBox="0 0 743 312" fill="none" xmlns="http://www.w3.org/2000/svg">
<path fill-rule="evenodd" clip-rule="evenodd" d="M40.611 209.633H150.075V249.825H0.563126V100.313H40.611V209.633Z" fill="white"/>
<path fill-rule="evenodd" clip-rule="evenodd" d="M542.552 100.275V249.787H502.505V100.275H542.552Z" fill="white"/>
<path fill-rule="evenodd" clip-rule="evenodd" d="M411.071 100.313L541.894 249.825H519.868H370.356V100.313H411.071ZM410.403 160.385L493.169 249.825H410.403V160.385Z" fill="white"/>
<path d="M565.255 100.313H615.277L742.8 249.825H692.778L565.255 100.313Z" fill="white"/>
<path d="M742.8 100.313H692.778L565.255 249.825H615.277L742.8 100.313Z" fill="white"/>
<path fill-rule="evenodd" clip-rule="evenodd" d="M246.782 134.515L217.487 100.169H167.465L222.34 164.506C230.296 154.547 238.397 144.488 246.782 134.515ZM253.809 142.754L256.237 145.601L231.226 174.925L229.399 172.782C237.399 162.761 245.476 152.703 253.809 142.754Z" fill="white"/>
<path d="M4.59723 311.861C349.009 311.861 262.907 -79.9404 725.459 30.1912C198.162 -113.981 276.255 311.861 4.59723 311.861Z" fill="white"/>
</svg>
