<svg width="557" height="343" viewBox="0 0 557 343" fill="none" xmlns="http://www.w3.org/2000/svg">
<path fill-rule="evenodd" clip-rule="evenodd" d="M30.1875 204.079H112.188V234.188H0.1875V122.188H30.1875V204.079Z" fill="black"/>
<path fill-rule="evenodd" clip-rule="evenodd" d="M376.188 234.159H406.188V122.159H488.188V122.159H376.188V234.159Z" fill="black"/>
<path d="M405.688 234.188L307.688 122.188H277.188V234.188H389.188H405.688Z" fill="black"/>
<path d="M369.188 234.188L307.188 167.188V234.188H369.188Z" fill="#F5F5F5"/>
<path d="M423.188 122.188H460.659L556.188 234.188H518.716L423.188 122.188Z" fill="black"/>
<path d="M556.188 122.188H518.716L423.188 234.188H460.659L556.188 122.188Z" fill="black"/>
<path fill-rule="evenodd" clip-rule="evenodd" d="M162.659 122.079H125.188L172.952 178.079L191.688 156.113L162.659 122.079Z" fill="black"/>
<path d="M3.18812 280.659C261.188 280.659 196.688 -12.8412 543.188 69.6588C148.188 -38.3413 206.688 280.659 3.18812 280.659Z" fill="black" stroke="#F5F5F5" stroke-width="4"/>
</svg>
